# xmcd
#
# Track frame offsets:
# 150
# 13330
# 26032
# 39060
# 48347
# 58885
# 70207
# 83185
# 95297
# 103975
# 118882
# 132832
# 147512
# 157447
# 173670
#
# Disc length: 2495 seconds
#
#
# Revision: 0
# Processed by: cddbd v1.5.2PL0 Copyright (c) Steve Scherf et al.
# Submitted via: FreeRIP 2.945 
#
DISCID=d909bd0f
DTITLE=Various Artist - Ralph Emery Presents Country Roads - He Stopped Loving Her Today
DYEAR=2006
DGENRE=Country
TTITLE0=Hank Williams and His Drifting Cowboys - Hey Good Looking
TTITLE1=Hank Snow and His Rainbow Ranch Boys - I'm Movin' On
TTITLE2=Kitty Wells - Making Believe
TTITLE3=Elvis Presley - Don't Be Cruel
TTITLE4=Everly Brothers - All I Have To Do Is Dream
TTITLE5=Marty Robbins - A White Sport Coat (& A Pink Carnation)
TTITLE6=Eddy Arnold - Anytime
TTITLE7=Tammy Wynette - Stand By Your Man
TTITLE8=Webb Pierce - I Ain't Never
TTITLE9=George Jones - He Stopped Loving Her Today
TTITLE10=Lefty Frizzell - Always Late (With Your Kisses)
TTITLE11=Jeannie C riley - Harper Valley PTA
TTITLE12=Merle Haggard - Mama Tried
TTITLE13=Kenny Rogers - Lucille
TTITLE14=BJ Thomas - Raindrops Keep Fallin On My Head
EXTD=
EXTT0=
EXTT1=
EXTT2=
EXTT3=
EXTT4=
EXTT5=
EXTT6=
EXTT7=
EXTT8=
EXTT9=
EXTT10=
EXTT11=
EXTT12=
EXTT13=
EXTT14=
PLAYORDER=
